<svg xmlns="http://www.w3.org/2000/svg" width="800" height="800" viewBox="0 0 400 400">
  <defs>
    <linearGradient id="g1" x1="0%" y1="0%" x2="100%" y2="100%">
      <stop offset="0%" stop-color="#f6a623" />
      <stop offset="100%" stop-color="#b23427" />
    </linearGradient>
    <linearGradient id="g2" x1="0%" y1="100%" x2="100%" y2="0%">
      <stop offset="0%" stop-color="#1b6f4e" />
      <stop offset="100%" stop-color="#006f80" />
    </linearGradient>
  </defs>
  <rect width="400" height="400" fill="#f4e0b5" />
  <g fill="none" stroke-width="6">
    <path stroke="url(#g1)" d="M0 60h400M0 180h400M0 300h400" opacity="0.55" />
    <path stroke="url(#g2)" d="M60 0v400M180 0v400M300 0v400" opacity="0.55" />
  </g>
  <g fill="#b23427" opacity="0.4">
    <rect x="20" y="20" width="40" height="40" />
    <rect x="340" y="80" width="40" height="40" />
    <rect x="100" y="320" width="40" height="40" />
    <rect x="240" y="220" width="40" height="40" />
  </g>
  <g fill="#006f80" opacity="0.45">
    <rect x="140" y="60" width="60" height="30" />
    <rect x="260" y="140" width="30" height="60" />
    <rect x="60" y="220" width="60" height="30" />
    <rect x="320" y="300" width="30" height="60" />
  </g>
  <g fill="#1b6f4e" opacity="0.45">
    <rect x="200" y="20" width="40" height="80" />
    <rect x="20" y="260" width="40" height="80" />
    <rect x="320" y="20" width="40" height="80" />
  </g>
</svg>
